<svg width="385" height="89" viewBox="0 0 385 89" fill="none" xmlns="http://www.w3.org/2000/svg">
<path d="M16.128 24.192C18.6027 16.768 22.528 13.056 27.904 13.056C32.1707 13.056 35.1573 15.616 36.864 20.736C38.4 25.2587 40.4053 36.352 42.88 54.016C45.5253 53.6747 47.0187 53.504 47.36 53.504C49.92 53.504 51.2 54.784 51.2 57.344C51.2 58.368 50.816 59.2214 50.048 59.904C49.28 60.5867 48.384 61.0134 47.36 61.184L44.032 61.568C44.8853 68.6507 45.312 73.9414 45.312 77.44C45.312 80.9387 44.416 83.584 42.624 85.376C40.832 87.168 38.7413 88.064 36.352 88.064C34.048 88.064 31.8293 87.0827 29.696 85.12C27.648 83.1574 26.0267 80.896 24.832 78.336C22.272 72.7894 20.992 68.6507 20.992 65.92C20.992 60.7147 25.728 57.1307 35.2 55.168C32.5547 37.0774 30.8053 26.8374 29.952 24.448C29.184 21.9734 28.5013 20.736 27.904 20.736C26.1973 20.736 24.704 22.656 23.424 26.496C19.4987 38.272 16.896 46.72 15.616 51.84C14.336 56.96 12.9707 62.5494 11.52 68.608C10.0693 74.6667 8.96001 79.1467 8.19201 82.048C7.50934 84.864 6.86934 86.5707 6.27201 87.168C5.76001 87.7654 4.94934 88.064 3.84 88.064C1.28001 88.064 5.24521e-06 86.784 5.24521e-06 84.224L0.256005 82.688C1.36534 78.2507 2.64534 73.0027 4.09601 66.944C5.63201 60.8854 6.74134 56.4054 7.42401 53.504C9.47201 45.4827 12.3733 35.712 16.128 24.192ZM36.352 62.848C31.232 63.9574 28.672 65.1947 28.672 66.56C28.672 68.096 29.6533 70.784 31.616 74.624C33.664 78.464 35.2427 80.384 36.352 80.384C37.2053 80.384 37.632 78.976 37.632 76.16C37.632 73.2587 37.2053 68.8214 36.352 62.848ZM97.34 86.784C92.8173 86.784 89.3187 84.736 86.844 80.64C84.4547 76.544 83.26 71.8507 83.26 66.56C83.26 63.8294 84.54 62.464 87.1 62.464C89.66 62.464 90.94 64 90.94 67.072C90.94 70.144 91.5373 72.9174 92.732 75.392C93.9267 77.8667 95.3773 79.104 97.084 79.104C98.876 79.104 101.052 78.6774 103.612 77.824C106.172 76.9707 107.58 76.544 107.836 76.544C110.396 76.544 111.676 77.824 111.676 80.384C111.676 82.2614 110.396 83.6267 107.836 84.48C103.228 86.016 99.7293 86.784 97.34 86.784ZM71.74 3.84002L71.612 6.01602C70.588 16.256 69.9053 23.8507 69.564 28.8C69.308 33.7494 69.18 39.7227 69.18 46.72C69.18 53.632 69.3933 58.1547 69.82 60.288C71.868 55.7654 75.3667 51.584 80.316 47.744C85.2653 43.904 91.3667 41.984 98.62 41.984C101.18 41.984 102.46 43.264 102.46 45.824C102.46 48.384 101.18 49.664 98.62 49.664C95.1213 49.664 91.8787 50.304 88.892 51.584C85.9907 52.864 83.6867 54.4427 81.98 56.32C78.7373 59.904 76.6893 63.104 75.836 65.92C75.6653 66.432 75.3667 67.5414 74.94 69.248C74.5987 70.8694 74.3427 71.936 74.172 72.448C74.0867 73.0454 73.788 73.8134 73.276 74.752C72.4227 76.3734 71.0573 77.184 69.18 77.184C67.388 77.184 65.6387 74.368 63.932 68.736C62.3107 63.0187 61.5 57.9414 61.5 53.504C61.5 49.0667 61.5 45.0987 61.5 41.6C61.5853 38.016 61.628 35.2 61.628 33.152C61.7133 31.0187 61.884 28.416 62.14 25.344C62.396 22.272 62.524 20.2667 62.524 19.328C62.6947 15.3174 63.2067 10.112 64.06 3.71202C64.316 1.23736 65.596 2.28882e-05 67.9 2.28882e-05C70.46 2.28882e-05 71.74 1.28002 71.74 3.84002ZM212.59 58.624C218.393 58.624 221.806 62.72 222.83 70.912C222.915 71.3387 223.001 72.1067 223.086 73.216C223.257 74.24 223.385 75.0507 223.47 75.648C223.555 76.2454 223.683 76.7147 223.854 77.056C223.854 77.3974 223.939 77.7387 224.11 78.08C224.366 78.7627 224.793 79.104 225.39 79.104C227.011 79.104 229.102 78.6774 231.662 77.824C234.222 76.9707 235.63 76.544 235.886 76.544C238.446 76.544 239.726 77.824 239.726 80.384C239.726 82.2614 238.446 83.6267 235.886 84.48C231.278 86.016 227.694 86.784 225.134 86.784C219.587 86.784 216.259 81.8347 215.15 71.936C214.638 68.1814 213.785 66.304 212.59 66.304C210.03 66.304 206.787 69.2907 202.862 75.264C201.411 77.4827 199.491 79.5307 197.102 81.408C194.713 83.2854 192.281 84.224 189.806 84.224C187.331 84.224 185.369 83.3707 183.918 81.664C182.467 79.9574 181.529 78.336 181.102 76.8C180.59 75.0934 179.779 71.3814 178.67 65.664C177.561 59.9467 176.793 56.9174 176.366 56.576C176.025 56.2347 175.726 56.064 175.47 56.064C174.275 56.064 173.209 56.832 172.27 58.368C171.417 59.8187 170.435 61.8667 169.326 64.512C168.217 67.1574 167.15 69.888 166.126 72.704C165.187 75.4347 164.419 77.4827 163.822 78.848C163.225 80.128 162.414 81.6214 161.39 83.328C159.513 86.4854 156.953 88.064 153.71 88.064C151.491 88.064 149.614 87.296 148.078 85.76C146.542 84.224 145.347 82.2614 144.494 79.872C142.958 75.0934 142.147 70.2294 142.062 65.28C142.062 60.2454 141.55 56.4054 140.526 53.76C139.587 51.0294 138.435 49.664 137.07 49.664C132.633 49.664 129.305 52.3947 127.086 57.856C126.062 60.5014 124.953 64.256 123.758 69.12C122.051 75.6907 117.998 80.3414 111.598 83.072C110.233 83.84 108.825 84.224 107.374 84.224C104.814 84.224 103.534 82.944 103.534 80.384C103.534 78.7627 104.814 77.44 107.374 76.416C108.398 75.9894 108.953 75.776 109.038 75.776C109.209 75.6907 109.55 75.52 110.062 75.264C110.574 75.008 110.915 74.8374 111.086 74.752C111.257 74.5814 111.555 74.368 111.982 74.112C112.494 73.7707 112.835 73.472 113.006 73.216C113.262 72.8747 113.561 72.4907 113.902 72.064C114.329 71.6374 114.627 71.2107 114.798 70.784C115.481 69.504 116.078 67.84 116.59 65.792C117.102 63.744 117.571 62.0374 117.998 60.672C118.425 59.3067 119.235 57.216 120.43 54.4C121.625 51.4987 122.862 49.3227 124.142 47.872C125.422 46.4214 127.171 45.0987 129.39 43.904C131.694 42.624 134.467 41.984 137.71 41.984C141.038 41.984 143.854 43.904 146.158 47.744C148.547 51.4987 149.742 57.2587 149.742 65.024C149.742 67.7547 150.041 70.9974 150.638 74.752C151.321 78.5067 152.345 80.384 153.71 80.384C154.393 80.384 155.118 79.488 155.886 77.696C156.654 75.8187 157.294 74.24 157.806 72.96C158.318 71.5947 158.915 69.9734 159.598 68.096C162.158 60.8427 164.675 55.7654 167.15 52.864C169.625 49.8774 172.398 48.384 175.47 48.384C179.054 48.384 181.614 50.0054 183.15 53.248C184.43 56.064 185.326 58.8374 185.838 61.568C187.545 71.552 188.782 76.544 189.55 76.544C192.11 76.544 195.353 73.5574 199.278 67.584C200.729 65.3654 202.649 63.3174 205.038 61.44C207.427 59.5627 209.945 58.624 212.59 58.624ZM293.23 77.568C293.23 77.568 294.595 77.2267 297.326 76.544C299.886 76.544 301.166 77.824 301.166 80.384C301.166 82.2614 299.886 83.6267 297.326 84.48C295.79 84.992 294.254 85.248 292.718 85.248C291.267 85.248 289.859 84.9067 288.494 84.224C287.129 83.5414 286.062 82.5174 285.294 81.152C284.014 78.9334 283.075 76.544 282.478 73.984L281.966 71.808C280.515 74.2827 276.974 77.184 271.342 80.512C265.795 83.84 259.865 85.504 253.55 85.504C250.137 85.504 247.15 84.224 244.59 81.664C242.03 79.104 240.75 76.1174 240.75 72.704C240.75 64.4267 244.163 57.2587 250.99 51.2C257.817 45.056 264.729 41.984 271.726 41.984C275.566 41.984 278.851 42.7094 281.582 44.16C284.398 45.5254 285.806 46.9334 285.806 48.384C285.806 50.944 284.526 52.224 281.966 52.224C281.454 52.224 280.217 51.7974 278.254 50.944C276.291 50.0907 274.115 49.664 271.726 49.664C267.118 49.664 262.083 51.9254 256.622 56.448C251.161 60.8854 248.43 66.304 248.43 72.704C248.43 73.984 248.942 75.1787 249.966 76.288C251.075 77.312 252.27 77.824 253.55 77.824C258.585 77.824 263.278 76.5014 267.63 73.856C271.982 71.1254 274.755 68.9067 275.95 67.2C277.145 65.408 278.126 63.7867 278.894 62.336C279.662 60.8854 280.217 59.9467 280.558 59.52C280.985 59.008 281.838 58.752 283.118 58.752C284.398 58.752 285.379 59.2214 286.062 60.16C286.745 61.0987 287.385 62.592 287.982 64.64C288.579 66.6027 289.177 68.8214 289.774 71.296C290.371 73.7707 290.883 75.4347 291.31 76.288C291.822 77.1414 292.462 77.568 293.23 77.568ZM341.93 88.064C333.738 88.064 326.869 81.92 321.322 69.632C318.25 72.1067 314.367 74.8374 309.674 77.824C304.981 80.8107 301.909 82.6454 300.458 83.328C299.007 83.9254 297.813 84.224 296.874 84.224C294.314 84.224 293.034 82.944 293.034 80.384C293.034 78.7627 294.314 77.44 296.874 76.416C298.325 75.8187 301.354 74.0267 305.962 71.04C310.655 67.968 314.623 65.1094 317.866 62.464C315.989 56.32 315.05 49.4934 315.05 41.984C315.05 30.6347 317.141 20.8214 321.322 12.544C325.589 4.18136 330.325 2.28882e-05 335.53 2.28882e-05C337.749 2.28882e-05 339.669 0.682688 341.29 2.04802C342.911 3.41336 344.106 5.12002 344.874 7.16802C346.325 11.0934 347.05 15.36 347.05 19.968C347.05 24.576 346.538 29.2694 345.514 34.048C344.49 38.7414 343.253 42.7094 341.802 45.952C340.437 49.1947 338.773 52.224 336.81 55.04C333.909 59.2214 330.879 62.592 327.722 65.152C332.33 75.3067 337.066 80.384 341.93 80.384C345.258 80.384 348.842 79.744 352.682 78.464C356.522 77.184 358.57 76.544 358.826 76.544C361.386 76.544 362.666 77.824 362.666 80.384C362.666 82.2614 361.386 83.6267 358.826 84.48C351.658 86.8694 346.026 88.064 341.93 88.064ZM335.53 7.68002C334.079 7.68002 332.202 9.47202 329.898 13.056C325.119 20.5654 322.73 30.208 322.73 41.984C322.73 47.9574 323.37 53.2054 324.65 57.728C327.466 55.0827 330.069 51.6694 332.458 47.488C337.066 39.4667 339.37 29.952 339.37 18.944C339.37 16.4694 339.029 13.9947 338.346 11.52C337.663 8.96002 336.725 7.68002 335.53 7.68002ZM377.83 78.336C379.195 78.336 380.603 78.9334 382.054 80.128C383.505 81.3227 384.23 82.6027 384.23 83.968C384.23 85.3334 383.633 86.3574 382.438 87.04C381.329 87.7227 380.091 88.064 378.726 88.064C377.361 88.064 376.209 87.4667 375.27 86.272C374.417 84.992 373.99 83.6267 373.99 82.176C373.99 79.616 375.27 78.336 377.83 78.336Z" fill="#9F0000"/>
</svg>
